<svg width="473" height="406" viewBox="0 0 473 406" fill="none" xmlns="http://www.w3.org/2000/svg"> <g filter="url(#filter0_f_129_80)"> <path d="M236.325 357.885C340.335 357.885 424.651 338.211 424.651 313.943C424.651 289.674 340.335 270 236.325 270C132.316 270 48 289.674 48 313.943C48 338.211 132.316 357.885 236.325 357.885Z" fill="#AA22AA" fill-opacity="0.4"/> </g> <path d="M356.9 0H116.1C99.4762 0 86 13.521 86 30.2V271.8C86 288.479 99.4762 302 116.1 302H356.9C373.524 302 387 288.479 387 271.8V30.2C387 13.521 373.524 0 356.9 0Z" fill="#AA22AA"/> <path d="M219.614 41L170.455 262M306.014 41L256.855 262M144.386 114.916H344M128 188.084H327.614" stroke="white" stroke-width="16" stroke-linecap="round"/> <defs> <filter id="filter0_f_129_80" x="0" y="222" width="472.651" height="183.885" filterUnits="userSpaceOnUse" color-interpolation-filters="sRGB"> <feFlood flood-opacity="0" result="BackgroundImageFix"/> <feBlend mode="normal" in="SourceGraphic" in2="BackgroundImageFix" result="shape"/> <feGaussianBlur stdDeviation="24" result="effect1_foregroundBlur_129_80"/> </filter> </defs> </svg>