<svg width="20" height="20" viewBox="0 0 20 20" fill="none" xmlns="http://www.w3.org/2000/svg">
<path d="M15.25 3.5C15.5816 3.5 15.8995 3.6317 16.1339 3.86612C16.3683 4.10054 16.5 4.41848 16.5 4.75C16.5 5.08152 16.3683 5.39946 16.1339 5.63388C15.8995 5.8683 15.5816 6 15.25 6C14.9185 6 14.6006 5.8683 14.3661 5.63388C14.1317 5.39946 14 5.08152 14 4.75C14 4.41848 14.1317 4.10054 14.3661 3.86612C14.6006 3.6317 14.9185 3.5 15.25 3.5Z" fill="#828282"/>
<path fill-rule="evenodd" clip-rule="evenodd" d="M10 5C11.3261 5 12.5979 5.52678 13.5356 6.46447C14.4732 7.40215 15 8.67392 15 10C15 11.3261 14.4732 12.5979 13.5356 13.5355C12.5979 14.4732 11.3261 15 10 15C8.67395 15 7.40218 14.4732 6.4645 13.5355C5.52681 12.5979 5.00003 11.3261 5.00003 10C5.00003 8.67392 5.52681 7.40215 6.4645 6.46447C7.40218 5.52678 8.67395 5 10 5ZM10 7C9.20438 7 8.44132 7.31607 7.87871 7.87868C7.3161 8.44129 7.00003 9.20435 7.00003 10C7.00003 10.7956 7.3161 11.5587 7.87871 12.1213C8.44132 12.6839 9.20438 13 10 13C10.7957 13 11.5587 12.6839 12.1214 12.1213C12.684 11.5587 13 10.7956 13 10C13 9.20435 12.684 8.44129 12.1214 7.87868C11.5587 7.31607 10.7957 7 10 7Z" fill="#828282"/>
<path fill-rule="evenodd" clip-rule="evenodd" d="M5.80003 0H14.2C17.4 0 20 2.6 20 5.8V14.2C20 15.7383 19.389 17.2135 18.3013 18.3012C17.2135 19.3889 15.7383 20 14.2 20H5.80003C2.60003 20 3.05176e-05 17.4 3.05176e-05 14.2V5.8C3.05176e-05 4.26174 0.6111 2.78649 1.69881 1.69878C2.78652 0.61107 4.26178 0 5.80003 0ZM5.60003 2C4.64525 2 3.72958 2.37928 3.05445 3.05442C2.37932 3.72955 2.00003 4.64522 2.00003 5.6V14.4C2.00003 16.39 3.61003 18 5.60003 18H14.4C15.3548 18 16.2705 17.6207 16.9456 16.9456C17.6207 16.2705 18 15.3548 18 14.4V5.6C18 3.61 16.39 2 14.4 2H5.60003Z" fill="#828282"/>
</svg>
