<svg width="18" height="18" viewBox="0 0 18 18" fill="none" xmlns="http://www.w3.org/2000/svg">
<path fill-rule="evenodd" clip-rule="evenodd" d="M16 0C16.5305 0 17.0392 0.210714 17.4142 0.585786C17.7893 0.960859 18 1.46957 18 2V16C18 16.5304 17.7893 17.0391 17.4142 17.4142C17.0392 17.7893 16.5305 18 16 18H2.00003C1.4696 18 0.96089 17.7893 0.585817 17.4142C0.210744 17.0391 3.05176e-05 16.5304 3.05176e-05 16V2C3.05176e-05 1.46957 0.210744 0.960859 0.585817 0.585786C0.96089 0.210714 1.4696 0 2.00003 0H16ZM15.5 15.5V10.2C15.5 9.33539 15.1566 8.5062 14.5452 7.89483C13.9338 7.28346 13.1046 6.94 12.24 6.94C11.39 6.94 10.4 7.46 9.92003 8.24V7.13H7.13003V15.5H9.92003V10.57C9.92003 9.8 10.54 9.17 11.31 9.17C11.6813 9.17 12.0374 9.3175 12.3 9.58005C12.5625 9.8426 12.71 10.1987 12.71 10.57V15.5H15.5ZM3.88003 5.56C4.32559 5.56 4.75291 5.383 5.06797 5.06794C5.38303 4.75288 5.56003 4.32556 5.56003 3.88C5.56003 2.95 4.81003 2.19 3.88003 2.19C3.43181 2.19 3.00196 2.36805 2.68502 2.68499C2.36808 3.00193 2.19003 3.43178 2.19003 3.88C2.19003 4.81 2.95003 5.56 3.88003 5.56ZM5.27003 15.5V7.13H2.50003V15.5H5.27003Z" fill="#828282"/>
</svg>
