<svg width="153" height="60" viewBox="0 0 153 60" fill="none" xmlns="http://www.w3.org/2000/svg"> <path d="M144.822 37.792H152.822V40.768H140.598V37.792L148.63 26.112H140.598V23.136H152.822V26.112L144.822 37.792Z" fill="#AA22AA"/> <path d="M127.006 22.848C128.371 22.848 129.577 23.1253 130.622 23.68C131.689 24.2133 132.521 24.8853 133.118 25.696V23.136H136.798V41.056C136.798 42.6773 136.457 44.1173 135.774 45.376C135.091 46.656 134.099 47.6587 132.798 48.384C131.518 49.1093 129.982 49.472 128.19 49.472C125.801 49.472 123.817 48.9067 122.238 47.776C120.659 46.6667 119.763 45.152 119.55 43.232H123.166C123.443 44.1493 124.03 44.8853 124.926 45.44C125.843 46.016 126.931 46.304 128.19 46.304C129.662 46.304 130.846 45.856 131.742 44.96C132.659 44.064 133.118 42.7627 133.118 41.056V38.112C132.499 38.944 131.657 39.648 130.59 40.224C129.545 40.7787 128.35 41.056 127.006 41.056C125.47 41.056 124.062 40.672 122.782 39.904C121.523 39.1147 120.521 38.0267 119.774 36.64C119.049 35.232 118.686 33.6427 118.686 31.872C118.686 30.1013 119.049 28.5333 119.774 27.168C120.521 25.8027 121.523 24.7467 122.782 24C124.062 23.232 125.47 22.848 127.006 22.848ZM133.118 31.936C133.118 30.72 132.862 29.664 132.35 28.768C131.859 27.872 131.209 27.1893 130.398 26.72C129.587 26.2507 128.713 26.016 127.774 26.016C126.835 26.016 125.961 26.2507 125.15 26.72C124.339 27.168 123.678 27.84 123.166 28.736C122.675 29.6107 122.43 30.656 122.43 31.872C122.43 33.088 122.675 34.1547 123.166 35.072C123.678 35.9893 124.339 36.6933 125.15 37.184C125.982 37.6533 126.857 37.888 127.774 37.888C128.713 37.888 129.587 37.6533 130.398 37.184C131.209 36.7147 131.859 36.032 132.35 35.136C132.862 34.2187 133.118 33.152 133.118 31.936Z" fill="#AA22AA"/> <path d="M96.9985 31.872C96.9985 30.1013 97.3612 28.5333 98.0865 27.168C98.8332 25.8027 99.8358 24.7467 101.095 24C102.375 23.232 103.783 22.848 105.319 22.848C106.705 22.848 107.911 23.1253 108.935 23.68C109.98 24.2133 110.812 24.8853 111.431 25.696V23.136H115.111V40.768H111.431V38.144C110.812 38.976 109.969 39.6693 108.903 40.224C107.836 40.7787 106.62 41.056 105.255 41.056C103.74 41.056 102.353 40.672 101.095 39.904C99.8358 39.1147 98.8332 38.0267 98.0865 36.64C97.3612 35.232 96.9985 33.6427 96.9985 31.872ZM111.431 31.936C111.431 30.72 111.175 29.664 110.663 28.768C110.172 27.872 109.521 27.1893 108.711 26.72C107.9 26.2507 107.025 26.016 106.087 26.016C105.148 26.016 104.273 26.2507 103.463 26.72C102.652 27.168 101.991 27.84 101.479 28.736C100.988 29.6107 100.743 30.656 100.743 31.872C100.743 33.088 100.988 34.1547 101.479 35.072C101.991 35.9893 102.652 36.6933 103.463 37.184C104.295 37.6533 105.169 37.888 106.087 37.888C107.025 37.888 107.9 37.6533 108.711 37.184C109.521 36.7147 110.172 36.032 110.663 35.136C111.175 34.2187 111.431 33.152 111.431 31.936Z" fill="#AA22AA"/> <path d="M94.52 18.528V21.504H88.6V40.768H84.952V21.504H79V18.528H94.52Z" fill="#AA22AA"/> <path fill-rule="evenodd" clip-rule="evenodd" d="M12 0C5.37258 0 0 5.37258 0 12V48C0 54.6274 5.37258 60 12 60H48C54.6274 60 60 54.6274 60 48V12C60 5.37258 54.6274 0 48 0H12ZM28.4939 10.4333C28.7332 9.35491 28.053 8.28677 26.9746 8.04749C25.8963 7.80821 24.8282 8.4884 24.5889 9.56674L21.9679 21.3784H12.9586C11.8541 21.3784 10.9586 22.2738 10.9586 23.3784C10.9586 24.4829 11.8541 25.3784 12.9586 25.3784H21.0803L19.0293 34.6216H10C8.89543 34.6216 8 35.5171 8 36.6216C8 37.7262 8.89543 38.6216 10 38.6216H18.1417L15.713 49.5667C15.4737 50.6451 16.1539 51.7132 17.2323 51.9525C18.3106 52.1918 19.3787 51.5116 19.618 50.4333L22.239 38.6216H33.7417L31.313 49.5667C31.0737 50.6451 31.7539 51.7132 32.8323 51.9525C33.9106 52.1918 34.9787 51.5116 35.218 50.4333L37.839 38.6216H46.0414C47.1459 38.6216 48.0414 37.7262 48.0414 36.6216C48.0414 35.5171 47.1459 34.6216 46.0414 34.6216H38.7266L40.7776 25.3784H49C50.1046 25.3784 51 24.4829 51 23.3784C51 22.2738 50.1046 21.3784 49 21.3784H41.6652L44.0939 10.4333C44.3332 9.35491 43.653 8.28677 42.5746 8.04749C41.4963 7.80821 40.4282 8.4884 40.1889 9.56674L37.5679 21.3784H26.0652L28.4939 10.4333ZM23.1266 34.6216L25.1776 25.3784H36.6803L34.6293 34.6216H23.1266Z" fill="#AA22AA"/> </svg>