<svg width="20" height="14" viewBox="0 0 20 14" fill="none" xmlns="http://www.w3.org/2000/svg">
<path fill-rule="evenodd" clip-rule="evenodd" d="M19.56 2.17C19.69 2.64 19.78 3.27 19.84 4.07C19.91 4.87 19.94 5.56 19.94 6.16L20 7C20 9.19 19.84 10.8 19.56 11.83C19.31 12.73 18.73 13.31 17.83 13.56C17.36 13.69 16.5 13.78 15.18 13.84C13.88 13.91 12.69 13.94 11.59 13.94L10 14C5.81003 14 3.20003 13.84 2.17003 13.56C1.27003 13.31 0.690031 12.73 0.440031 11.83C0.310031 11.36 0.220031 10.73 0.160031 9.93C0.0900306 9.13 0.0600305 8.44 0.0600305 7.84L3.05176e-05 7C3.05176e-05 4.81 0.160031 3.2 0.440031 2.17C0.690031 1.27 1.27003 0.69 2.17003 0.44C2.64003 0.31 3.50003 0.22 4.82003 0.16C6.12003 0.0899998 7.31003 0.0599999 8.41003 0.0599999L10 0C14.19 0 16.8 0.16 17.83 0.44C18.73 0.69 19.31 1.27 19.56 2.17ZM8.00003 10L13.19 7L8.00003 4V10Z" fill="#828282"/>
</svg>
